<?xml version="1.0" encoding="UTF-8"?>
<svg id="Livello_2" xmlns="http://www.w3.org/2000/svg" viewBox="0 0 710.4 172.47">
  <g id="Livello_1-2" data-name="Livello_1">
    <g>
      <g id="LWPOLYLINE">
        <path d="M0,78.19v48.53c0,9.81,7.95,17.75,17.75,17.75,5.25,0,10.23-2.32,13.6-6.34l22.39-26.69c.66-.79,1.4-1.52,2.19-2.19,7.51-6.3,18.71-5.33,25.01,2.18l24.86,29.62c2.35,2.8,5.83,4.42,9.49,4.42h27.18c6.07,0,10.98-4.92,10.98-10.98s-4.92-10.98-10.98-10.98h0s-18.87,0-18.87,0c-2.44,0-4.76-1.08-6.33-2.95l-26.02-31.01c-5.54-6.6-5.54-16.22,0-22.82l26.02-31.01c1.57-1.87,3.88-2.95,6.33-2.95h18.87c6.07,0,10.98-4.92,10.98-10.98s-4.92-10.98-10.98-10.98h-27.18c-3.66,0-7.13,1.62-9.49,4.42l-24.86,29.62c-.66.79-1.4,1.52-2.19,2.19-7.51,6.3-18.71,5.32-25.01-2.19l-13.58-16.18c-3.9-4.65-10.83-5.25-15.48-1.35-4.65,3.9-5.25,10.83-1.35,15.48,0,0,0,0,0,0l20.09,23.93c5.54,6.6,5.54,16.23,0,22.83l-17.81,21.23c-.39.47-.97.74-1.58.74-1.14,0-2.06-.92-2.06-2.06v-31.28c0-6.07-4.92-10.98-10.98-10.98S0,72.13,0,78.19Z"/>
      </g>
      <g id="CIRCLE">
        <circle cx="10.98" cy="10.98" r="10.98"/>
      </g>
    </g>
    <g>
      <path d="M197.1,36.4c-1.69-1.69-2.54-3.78-2.54-6.28s.85-4.59,2.54-6.28c1.69-1.69,3.78-2.54,6.28-2.54s4.47.85,6.16,2.54c1.69,1.69,2.54,3.79,2.54,6.28s-.85,4.59-2.54,6.28c-1.69,1.69-3.75,2.54-6.16,2.54s-4.59-.84-6.28-2.54Z"/>
      <path d="M211.08,138.11c0,.83-.67,1.51-1.51,1.51h0c-6.77,0-12.27-5.49-12.27-12.27V62.55c0-3.8,3.08-6.89,6.89-6.89h0c3.8,0,6.89,3.08,6.89,6.89v75.56Z"/>
      <path d="M276.85,75.23c4.15,2.17,7.39,5.4,9.72,9.66,2.33,4.27,3.5,9.42,3.5,15.46v32.43c0,3.77-3.06,6.83-6.83,6.83h0c-3.77,0-6.83-3.06-6.83-6.83v-30.38c0-5.96-1.49-10.53-4.47-13.71-2.98-3.18-7.05-4.77-12.2-4.77s-9.24,1.59-12.26,4.77c-3.02,3.18-4.53,7.75-4.53,13.71v30.32c0,3.8-3.08,6.89-6.89,6.89h0c-3.8,0-6.89-3.08-6.89-6.89v-54.14c0-3.52,1.5-6.88,4.13-9.22l3.41-3.04c2.41-2.16,6.24-.44,6.24,2.79v11.55c2.25-2.74,5.13-4.87,8.64-6.4,3.5-1.53,7.23-2.3,11.17-2.3,5.23,0,9.92,1.09,14.07,3.26Z"/>
      <path d="M329.88,84.29h-4.56c-1.19,0-2.15.96-2.15,2.15v46.23c0,3.84-3.11,6.95-6.95,6.95h0c-3.84,0-6.95-3.11-6.95-6.95v-46.23c0-1.19-.96-2.15-2.15-2.15h-.09c-3.1,0-5.62-2.51-5.62-5.62h0c0-3.1,2.51-5.62,5.62-5.62h.09c1.19,0,2.15-.96,2.15-2.15v-2.56c0-7.65,2.03-13.23,6.1-16.73,2.97-2.56,7.18-4.19,12.63-4.87,3.46-.44,6.52,2.31,6.52,5.81h0c0,2.72-1.87,5.14-4.53,5.69-1.86.38-3.29,1.03-4.29,1.96-1.69,1.57-2.54,4.29-2.54,8.15v2.56c0,1.19.96,2.15,2.15,2.15h4.56c3.1,0,5.62,2.51,5.62,5.62h0c0,3.1-2.51,5.62-5.62,5.62Z"/>
      <path d="M359.53,136.41c-5.07-2.86-9.06-6.88-11.96-12.08-2.9-5.19-4.35-11.21-4.35-18.06s1.49-12.76,4.47-18c2.98-5.23,7.05-9.26,12.2-12.08,5.15-2.82,10.91-4.23,17.28-4.23s12.12,1.41,17.27,4.23c5.15,2.82,9.22,6.85,12.2,12.08,2.98,5.24,4.47,11.23,4.47,18s-1.53,12.76-4.59,18c-3.06,5.24-7.23,9.28-12.5,12.14-5.28,2.86-11.09,4.29-17.45,4.29s-11.96-1.43-17.03-4.29ZM386.53,126.21c3.1-1.69,5.62-4.23,7.55-7.61,1.93-3.38,2.9-7.49,2.9-12.32s-.93-8.92-2.78-12.26c-1.85-3.34-4.31-5.86-7.37-7.55-3.06-1.69-6.36-2.54-9.91-2.54s-6.83.84-9.85,2.54c-3.02,1.69-5.42,4.21-7.19,7.55-1.77,3.34-2.66,7.43-2.66,12.26,0,7.17,1.83,12.7,5.5,16.61,3.66,3.91,8.27,5.86,13.83,5.86,3.54,0,6.86-.85,9.97-2.54Z"/>
      <path d="M468.49,136.41c-5.07-2.86-9.06-6.88-11.96-12.08-2.9-5.19-4.35-11.21-4.35-18.06s1.49-12.76,4.47-18c2.98-5.23,7.05-9.26,12.2-12.08,5.15-2.82,10.91-4.23,17.28-4.23s12.12,1.41,17.27,4.23c5.15,2.82,9.22,6.85,12.2,12.08,2.98,5.24,4.47,11.23,4.47,18s-1.53,12.76-4.59,18c-3.06,5.24-7.23,9.28-12.5,12.14-5.28,2.86-11.09,4.29-17.45,4.29s-11.96-1.43-17.03-4.29ZM495.49,126.21c3.1-1.69,5.62-4.23,7.55-7.61,1.93-3.38,2.9-7.49,2.9-12.32s-.93-8.92-2.78-12.26c-1.85-3.34-4.31-5.86-7.37-7.55-3.06-1.69-6.36-2.54-9.91-2.54s-6.83.84-9.85,2.54-5.42,4.21-7.19,7.55c-1.77,3.34-2.66,7.43-2.66,12.26,0,7.17,1.83,12.7,5.5,16.61,3.66,3.91,8.27,5.86,13.83,5.86,3.54,0,6.86-.85,9.97-2.54Z"/>
      <path d="M574.25,75.05c3.99,2.05,7.11,4.61,9.36,7.67v-7.65c0-1.28.55-2.5,1.51-3.34l4.99-4.39c2.88-2.53,7.39-.49,7.39,3.34v70.02c0,6.12-1.29,11.58-3.87,16.37-2.58,4.79-6.3,8.56-11.17,11.29-4.87,2.74-10.69,4.11-17.45,4.11-9.02,0-16.51-2.11-22.47-6.34-2.74-1.94-4.93-4.2-6.58-6.78-2.88-4.51.39-10.43,5.75-10.43h0c2.34,0,4.54,1.19,5.75,3.19,1.23,2.03,2.99,3.77,5.29,5.21,3.42,2.13,7.51,3.2,12.26,3.2,5.56,0,10.04-1.69,13.47-5.07,3.42-3.38,5.13-8.3,5.13-14.74v-11.11c-2.34,3.14-5.5,5.78-9.48,7.91-3.99,2.13-8.52,3.2-13.59,3.2-5.8,0-11.09-1.47-15.89-4.41-4.79-2.94-8.58-7.05-11.35-12.32-2.78-5.27-4.17-11.25-4.17-17.94s1.39-12.6,4.17-17.76c2.78-5.15,6.56-9.16,11.35-12.02,4.79-2.86,10.09-4.29,15.89-4.29,5.15,0,9.72,1.03,13.71,3.08ZM580.77,94.32c-1.89-3.38-4.37-5.96-7.43-7.73-3.06-1.77-6.36-2.66-9.91-2.66s-6.85.87-9.9,2.6c-3.06,1.73-5.54,4.27-7.43,7.61-1.89,3.34-2.84,7.31-2.84,11.9s.94,8.62,2.84,12.08c1.89,3.46,4.39,6.1,7.49,7.91,3.1,1.81,6.38,2.72,9.84,2.72s6.84-.88,9.91-2.66c3.06-1.77,5.54-4.37,7.43-7.79,1.89-3.42,2.84-7.43,2.84-12.02s-.95-8.58-2.84-11.96Z"/>
      <path d="M616.35,61.7c-1.69-1.69-2.54-3.78-2.54-6.28s.85-4.59,2.54-6.28c1.69-1.69,3.78-2.54,6.28-2.54s4.47.85,6.16,2.54c1.69,1.69,2.54,3.79,2.54,6.28s-.85,4.59-2.54,6.28c-1.69,1.69-3.75,2.54-6.16,2.54s-4.59-.84-6.28-2.54Z"/>
      <rect x="615.62" y="73.06" width="13.77" height="66.56" rx="6.89" ry="6.89"/>
      <path d="M444.84,125.37h-6.3v-62.64c0-6.91-5.6-12.51-12.51-12.51-.7,0-1.27.57-1.27,1.27v75.62c0,6.87,5.54,12.44,12.4,12.5h0s7.68,0,7.68,0c3.26,0,5.9-2.64,5.9-5.9v-2.45c0-3.26-2.64-5.9-5.9-5.9Z"/>
      <path d="M690.41,83.93h15.49c2.49,0,4.5-2.01,4.5-4.5v-1.87c0-2.49-2.01-4.5-4.5-4.5h-19.66v.02c-1.98.09-3.79,1.16-4.82,2.87l-8.16,13.62c-1.67,2.79-5.7,2.85-7.45.1l-8.01-12.58c-1.6-2.51-4.36-4.03-7.33-4.03h0c-4.68,0-7.52,5.17-5.01,9.12l14.18,22.31c.92,1.45.91,3.31-.04,4.75l-13.91,21.17c-2.59,3.95.24,9.2,4.96,9.2h0c2.09,0,4.02-1.1,5.09-2.89l8.16-13.62c1.67-2.79,5.7-2.85,7.45-.1l8.02,12.6c1.45,2.28,3.88,3.73,6.55,3.96v.05h19.66c2.49,0,4.5-2.02,4.5-4.5v-1.87c0-2.49-2.01-4.5-4.5-4.5h-15.01l-13.04-20.45c-.93-1.45-.92-3.31.03-4.75l12.84-19.62Z"/>
    </g>
  </g>
</svg>